<svg width="1600" height="980" viewBox="0 0 1600 980" fill="none" xmlns="http://www.w3.org/2000/svg">
  <defs>
    <linearGradient id="bg" x1="0" y1="0" x2="1600" y2="980" gradientUnits="userSpaceOnUse">
      <stop offset="0" stop-color="#F6FBFF"/>
      <stop offset="1" stop-color="#EEF4EA"/>
    </linearGradient>
    <linearGradient id="panel" x1="420" y1="120" x2="1180" y2="820" gradientUnits="userSpaceOnUse">
      <stop offset="0" stop-color="#103A5B"/>
      <stop offset="1" stop-color="#0B2740"/>
    </linearGradient>
    <linearGradient id="bar" x1="0" y1="0" x2="1" y2="1">
      <stop offset="0" stop-color="#F0B44C"/>
      <stop offset="1" stop-color="#D9872B"/>
    </linearGradient>
    <filter id="shadow" x="-20%" y="-20%" width="140%" height="140%">
      <feDropShadow dx="0" dy="12" stdDeviation="18" flood-color="#17324A" flood-opacity="0.18"/>
    </filter>
    <marker id="arrow" viewBox="0 0 12 12" refX="10" refY="6" markerWidth="12" markerHeight="12" orient="auto-start-reverse">
      <path d="M1 1L11 6L1 11V1Z" fill="#2C6E63"/>
    </marker>
    <marker id="arrowSoft" viewBox="0 0 12 12" refX="10" refY="6" markerWidth="12" markerHeight="12" orient="auto-start-reverse">
      <path d="M1 1L11 6L1 11V1Z" fill="#567A93"/>
    </marker>
    <style>
      .title { font: 700 32px 'Segoe UI', Arial, sans-serif; fill: #14324A; }
      .subtitle { font: 400 18px 'Segoe UI', Arial, sans-serif; fill: #33576E; }
      .section { font: 700 22px 'Segoe UI', Arial, sans-serif; fill: #14324A; }
      .panelTitle { font: 700 24px 'Segoe UI', Arial, sans-serif; fill: #F6FAFC; }
      .panelBody { font: 400 16px 'Segoe UI', Arial, sans-serif; fill: #DCEAF2; }
      .cardTitle { font: 700 18px 'Segoe UI', Arial, sans-serif; fill: #14324A; }
      .cardBody { font: 400 15px 'Segoe UI', Arial, sans-serif; fill: #38596F; }
      .small { font: 400 13px 'Segoe UI', Arial, sans-serif; fill: #537086; }
      .smallDark { font: 600 12px 'Segoe UI', Arial, sans-serif; fill: #18384E; }
      .mono { font: 600 12px 'Consolas', 'Courier New', monospace; fill: #F3F8FB; }
      .monoDark { font: 600 12px 'Consolas', 'Courier New', monospace; fill: #204760; }
      .badge { font: 700 15px 'Segoe UI', Arial, sans-serif; fill: #14324A; }
      .badgeSub { font: 400 12px 'Segoe UI', Arial, sans-serif; fill: #527187; }
    </style>
  </defs>

  <rect x="0" y="0" width="1600" height="980" fill="url(#bg)"/>

  <text x="800" y="62" text-anchor="middle" class="title">GeneDraft integrates routine molecular sequence tasks in one local desktop workflow</text>
  <rect x="70" y="150" width="260" height="560" rx="30" fill="#FFFFFF" stroke="#D4E3EA" stroke-width="2" filter="url(#shadow)"/>
  <text x="200" y="195" text-anchor="middle" class="section">Inputs</text>

  <rect x="98" y="225" width="204" height="88" rx="20" fill="#E7F2FA"/>
  <text x="118" y="254" class="cardTitle">Sequence files</text>
  <text x="118" y="281" class="cardBody">FASTA and GenBank</text>
  <text x="118" y="302" class="small">Import, inspect, edit</text>

  <rect x="98" y="336" width="204" height="88" rx="20" fill="#EDF5E8"/>
  <text x="118" y="365" class="cardTitle">Manual input</text>
  <text x="118" y="392" class="cardBody">Paste DNA, RNA,</text>
  <text x="118" y="412" class="cardBody">or protein sequences</text>

  <rect x="98" y="447" width="204" height="88" rx="20" fill="#FFF4E4"/>
  <text x="118" y="476" class="cardTitle">NCBI retrieval</text>
  <text x="118" y="503" class="cardBody">Fetch by accession</text>
  <text x="118" y="524" class="small">nucleotide or protein</text>

  <rect x="98" y="558" width="204" height="120" rx="20" fill="#F4EDF8"/>
  <text x="118" y="587" class="cardTitle">Interactive context</text>
  <text x="118" y="614" class="cardBody">Recent files</text>
  <text x="118" y="635" class="cardBody">Saved settings</text>
  <text x="118" y="656" class="cardBody">Session recovery</text>

  <rect x="410" y="132" width="780" height="652" rx="38" fill="url(#panel)" filter="url(#shadow)"/>
  <rect x="410" y="132" width="780" height="50" rx="38" fill="#0A2134"/>
  <circle cx="448" cy="157" r="8" fill="#E56D5D"/>
  <circle cx="474" cy="157" r="8" fill="#F1B24E"/>
  <circle cx="500" cy="157" r="8" fill="#4AB986"/>
  <rect x="540" y="144" width="250" height="24" rx="12" fill="#143854"/>
  <text x="665" y="161" text-anchor="middle" class="mono">GeneDraft  |  local desktop workbench</text>

  <text x="800" y="218" text-anchor="middle" class="panelTitle">Editor-centered desktop workspace</text>
  <text x="800" y="248" text-anchor="middle" class="panelBody">DNA, RNA, and protein review in a single interface</text>

  <rect x="470" y="286" width="660" height="378" rx="28" fill="#F6FBFD"/>
  <rect x="492" y="306" width="378" height="318" rx="18" fill="#FFFFFF" stroke="#D7E5EC" stroke-width="2"/>
  <rect x="892" y="306" width="216" height="150" rx="18" fill="#EAF3F8"/>
  <rect x="892" y="474" width="216" height="150" rx="18" fill="#EAF3F8"/>

  <text x="516" y="334" class="cardTitle">Sequence editor</text>
  <text x="516" y="356" class="small">validation, normalization, motif and ORF highlighting</text>
  <rect x="516" y="376" width="328" height="10" rx="5" fill="url(#bar)"/>
  <rect x="516" y="394" width="278" height="10" rx="5" fill="#6BB99A"/>
  <rect x="516" y="412" width="250" height="10" rx="5" fill="#9CC6E1"/>
  <rect x="516" y="430" width="310" height="10" rx="5" fill="#F0D37A"/>
  <rect x="516" y="448" width="224" height="10" rx="5" fill="#D0E1EB"/>
  <rect x="516" y="466" width="300" height="10" rx="5" fill="#C6D9E7"/>
  <rect x="516" y="484" width="260" height="10" rx="5" fill="#E3EDF3"/>
  <rect x="516" y="502" width="318" height="10" rx="5" fill="#9CC6E1"/>
  <rect x="516" y="520" width="240" height="10" rx="5" fill="#D0E1EB"/>
  <rect x="516" y="548" width="170" height="44" rx="12" fill="#0F3654"/>
  <text x="601" y="575" text-anchor="middle" class="mono">find motifs / ORFs</text>

  <text x="910" y="334" class="cardTitle">Feature panel</text>
  <text x="910" y="358" class="cardBody">Add, edit, focus,</text>
  <text x="910" y="379" class="cardBody">delete, export</text>
  <rect x="910" y="396" width="140" height="12" rx="6" fill="#6BB99A"/>
  <rect x="910" y="416" width="110" height="12" rx="6" fill="#F0B44C"/>
  <rect x="910" y="436" width="160" height="12" rx="6" fill="#89B8D8"/>

  <text x="910" y="502" class="cardTitle">Results panel</text>
  <text x="910" y="526" class="cardBody">Translation</text>
  <text x="910" y="547" class="cardBody">Protein report</text>
  <text x="910" y="568" class="cardBody">BLAST output</text>
  <rect x="910" y="585" width="150" height="12" rx="6" fill="#C7DDEA"/>
  <rect x="910" y="605" width="125" height="12" rx="6" fill="#D8E7C8"/>

  <rect x="520" y="636" width="560" height="64" rx="18" fill="#0F2E49"/>
  <text x="800" y="661" text-anchor="middle" class="mono">Local workflow: edit, translate, annotate, export maps, build BLAST databases</text>
  <text x="800" y="686" text-anchor="middle" class="mono">Online add-ons: accession fetch, BLAST web, Protein-Sol, SoluProt, Pfam/HMMER</text>

  <rect x="464" y="730" width="208" height="92" rx="22" fill="#E9F4FB" stroke="#CFE0E8" stroke-width="2"/>
  <text x="568" y="760" text-anchor="middle" class="cardTitle">Search and translation</text>
  <text x="568" y="786" text-anchor="middle" class="cardBody">Motifs, ORFs, six-frame</text>
  <text x="568" y="807" text-anchor="middle" class="cardBody">translation</text>

  <rect x="696" y="730" width="208" height="92" rx="22" fill="#EEF5E8" stroke="#D8E5CE" stroke-width="2"/>
  <text x="800" y="760" text-anchor="middle" class="cardTitle">Annotation and review</text>
  <text x="800" y="786" text-anchor="middle" class="cardBody">Features, markers,</text>
  <text x="800" y="807" text-anchor="middle" class="cardBody">coordinate tracking</text>

  <rect x="928" y="730" width="208" height="92" rx="22" fill="#FFF4E6" stroke="#EBD9C1" stroke-width="2"/>
  <text x="1032" y="760" text-anchor="middle" class="cardTitle">Protein analysis</text>
  <text x="1032" y="786" text-anchor="middle" class="cardBody">Solubility, domains,</text>
  <text x="1032" y="807" text-anchor="middle" class="cardBody">expression heuristics</text>

  <rect x="250" y="850" width="1100" height="86" rx="26" fill="#FFFFFF" stroke="#D4E3EA" stroke-width="2" filter="url(#shadow)"/>
  <text x="800" y="868" text-anchor="middle" class="section">Technology stack</text>

  <g transform="translate(320 896)">
    <circle cx="0" cy="0" r="18" fill="#3776AB"/>
    <text x="0" y="5" text-anchor="middle" class="mono">Py</text>
    <text x="34" y="-2" class="badge">Python</text>
    <text x="34" y="16" class="badgeSub">core application logic</text>
  </g>

  <g transform="translate(500 896)">
    <circle cx="0" cy="0" r="18" fill="#E7B33B"/>
    <text x="0" y="5" text-anchor="middle" class="monoDark">tk</text>
    <text x="34" y="-2" class="badge">tkinter</text>
    <text x="34" y="16" class="badgeSub">desktop interface</text>
  </g>

  <g transform="translate(680 896)">
    <circle cx="0" cy="0" r="18" fill="#4EA97D"/>
    <text x="0" y="5" text-anchor="middle" class="mono">Bio</text>
    <text x="34" y="-2" class="badge">Biopython</text>
    <text x="34" y="16" class="badgeSub">sequence parsing and formats</text>
  </g>

  <g transform="translate(920 896)">
    <circle cx="0" cy="0" r="18" fill="#C86A4A"/>
    <text x="0" y="5" text-anchor="middle" class="mono">BL</text>
    <text x="34" y="-2" class="badge">BLAST+</text>
    <text x="34" y="16" class="badgeSub">local search</text>
  </g>

  <g transform="translate(1110 896)">
    <circle cx="0" cy="0" r="18" fill="#6B8FB4"/>
    <text x="0" y="5" text-anchor="middle" class="mono">API</text>
    <text x="34" y="-2" class="badge">NCBI / EBI</text>
    <text x="34" y="16" class="badgeSub">web tools, domains, solubility</text>
  </g>

  <rect x="1268" y="150" width="262" height="560" rx="30" fill="#FFFFFF" stroke="#D4E3EA" stroke-width="2" filter="url(#shadow)"/>
  <text x="1399" y="195" text-anchor="middle" class="section">Outputs</text>

  <rect x="1298" y="225" width="202" height="88" rx="20" fill="#E8F4FA"/>
  <text x="1318" y="254" class="cardTitle">Curated sequences</text>
  <text x="1318" y="281" class="cardBody">FASTA and GenBank</text>
  <text x="1318" y="302" class="small">with edited features</text>

  <rect x="1298" y="336" width="202" height="88" rx="20" fill="#EDF5E8"/>
  <text x="1318" y="365" class="cardTitle">Visual exports</text>
  <text x="1318" y="392" class="cardBody">Linear and circular</text>
  <text x="1318" y="412" class="cardBody">SVG maps</text>

  <rect x="1298" y="447" width="202" height="88" rx="20" fill="#FFF4E4"/>
  <text x="1318" y="476" class="cardTitle">Analysis reports</text>
  <text x="1318" y="503" class="cardBody">ORFs, translations,</text>
  <text x="1318" y="524" class="cardBody">protein summaries</text>

  <rect x="1298" y="558" width="202" height="120" rx="20" fill="#F4EDF8"/>
  <text x="1318" y="587" class="cardTitle">Downstream actions</text>
  <text x="1318" y="614" class="cardBody">BLAST web</text>
  <text x="1318" y="635" class="cardBody">BLAST local</text>
  <text x="1318" y="656" class="cardBody">Database build</text>

  <path d="M330 430C360 430 380 430 410 430" stroke="#2C6E63" stroke-width="7" stroke-linecap="round" marker-end="url(#arrow)"/>
  <path d="M1190 430C1220 430 1240 430 1268 430" stroke="#2C6E63" stroke-width="7" stroke-linecap="round" marker-end="url(#arrow)"/>

  <path d="M200 710C200 760 310 772 452 774" stroke="#567A93" stroke-width="4" stroke-linecap="round" stroke-dasharray="8 10" marker-end="url(#arrowSoft)"/>
  <path d="M1398 710C1398 760 1290 772 1148 774" stroke="#567A93" stroke-width="4" stroke-linecap="round" stroke-dasharray="8 10" marker-end="url(#arrowSoft)"/>
</svg>
